#!OML:ASF H:\Male1\Project 1\Capture day 1\Session 1\Male1.ASF
:FULLY-SPECIFIED
:DEGREES
440
root 12.955 14.9353 0.0767544 -516.873 -93.104 518.185
lowerback 8.84283 0.357512 0.529386
upperback 5.61761 0.301838 -2.00491
thorax 0.876957 0.109299 -2.39245
lowerneck -9.29746 3.22562 7.87164
upperneck 5.14516 3.93094 -8.0513
head 3.36205 1.75402 -3.50868
rclavicle 1.53064e-014 3.73715e-014
rhumerus -49.8373 38.2425 -97.5246
rradius 115.831
rwrist -18.1879
rhand -16.8411 12.7241
rfingers 7.12502
rthumb 9.38866 -17.0468
lclavicle 1.53064e-014 3.73715e-014
lhumerus -35.8315 6.56387 77.9145
lradius 29.6538
lwrist 1.69497
lhand -20.8261 5.24059
lfingers 7.12502
lthumb 5.54226 35.1481
rfemur -10.6071 15.4579 23.5287
rtibia 38.6576
rfoot -38.1942 -29.1292
rtoes -19.401
lfemur -24.2421 -11.9631 -19.9527
ltibia 44.4097
lfoot -25.9125 19.1845
ltoes -0.418237
441
root 12.9211 14.9522 0.130626 -508.768 -92.8534 510.495
lowerback 8.90007 0.463332 0.371668
upperback 5.53917 0.430238 -2.05756
thorax 0.768796 0.169618 -2.36875
lowerneck -9.57142 3.30964 8.07798
upperneck 5.19078 3.99641 -7.9833
head 3.42828 1.78829 -3.51402
rclavicle 1.39149e-015 -7.15625e-015
rhumerus -49.8756 38.2647 -97.6525
rradius 115.978
rwrist -18.6613
rhand -16.7257 12.4451
rfingers 7.12502
rthumb 9.50005 -17.3208
lclavicle 1.39149e-015 -7.15625e-015
lhumerus -35.7895 5.27612 78.3012
lradius 30.1736
lwrist 3.44205
lhand -21.6457 4.42727
lfingers 7.12502
lthumb 4.75091 34.354
rfemur -11.0283 15.3659 23.3809
rtibia 38.7195
rfoot -37.6459 -28.7007
rtoes -19.5044
lfemur -24.3595 -12.2184 -19.853
ltibia 44.19
lfoot -26.2498 19.7299
ltoes 0.872786
442
root 12.8884 14.9666 0.18402 -502.286 -92.5796 504.44
lowerback 8.97805 0.611752 0.1051
upperback 5.44273 0.604966 -2.18932
thorax 0.631893 0.251321 -2.37015
lowerneck -10.7058 3.66652 7.61605
upperneck 6.27037 4.42314 -6.93649
head 3.93909 2.01642 -3.06929
rclavicle 2.78299e-015 -4.13472e-014
rhumerus -49.8964 38.1487 -97.8768
rradius 115.962
rwrist -18.8991
rhand -16.6155 12.2687
rfingers 7.12502
rthumb 9.60634 -17.4923
lclavicle 2.78299e-015 -4.13472e-014
lhumerus -35.7958 3.89379 78.7048
lradius 30.6829
lwrist 5.16029
lhand -22.8032 3.38859
lfingers 7.12502
lthumb 3.63316 33.3374
rfemur -11.5294 15.0755 23.0472
rtibia 38.8605
rfoot -37.0295 -28.308
rtoes -19.5542
lfemur -24.4613 -12.9121 -19.9425
ltibia 43.917
lfoot -26.6346 20.6335
ltoes 2.62015
443
root 12.8552 14.9829 0.237852 -494.496 -92.2444 497.119
lowerback 8.78728 0.774261 0.111824
upperback 5.46979 0.815327 -2.58859
thorax 0.781178 0.361153 -2.80254
lowerneck -11.2444 3.7637 7.66372
upperneck 6.61904 4.46865 -6.34886
head 4.12303 2.06251 -2.88306
rclavicle -3.97569e-015 -1.03368e-014
rhumerus -49.5987 37.7843 -98.2808
rradius 115.775
rwrist -18.9647
rhand -16.3964 12.2501
rfingers 7.12502
rthumb 9.8177 -17.501
lclavicle -3.97569e-015 -1.03368e-014
lhumerus -35.8059 2.36343 78.7886
lradius 31.4599
lwrist 6.93847
lhand -23.9927 3.19582
lfingers 7.12502
lthumb 2.48439 33.1611
rfemur -12.1197 14.6998 22.6393
rtibia 39.0441
rfoot -36.3891 -27.958
rtoes -20.0615
lfemur -24.5815 -13.7041 -20.1006
ltibia 43.672
lfoot -27.2944 21.4959
ltoes 5.20221
444
root 12.8194 14.9998 0.293825 -480.468 -91.931 483.611
lowerback 8.74633 0.968138 -0.0883678
upperback 5.31999 1.05717 -2.75184
thorax 0.659655 0.479134 -2.87828
lowerneck -11.4005 3.74218 7.89303
upperneck 6.66203 4.38207 -6.21741
head 4.15725 2.03083 -2.88358
rclavicle 5.96354e-015 1.59028e-015
rhumerus -49.6838 37.6714 -98.6029
rradius 115.635
rwrist -18.997
rhand -15.9729 12.0162
rfingers 7.12502
rthumb 10.2263 -17.7152
lclavicle 5.96354e-015 1.59028e-015
lhumerus -36.1916 1.42504 79.0188
lradius 32.186
lwrist 8.58674
lhand -25.1103 2.81667
lfingers 7.12502
lthumb 1.405 32.7918
rfemur -12.7366 14.1763 22.2971
rtibia 39.2391
rfoot -35.9564 -27.4169
rtoes -20.6962
lfemur -24.7498 -14.2458 -20.1966
ltibia 43.5076
lfoot -28.012 22.2768
ltoes 7.53788
445
root 12.7986 15.0161 0.344894 -462.954 -92.1406 466.6
lowerback 8.98613 1.16983 -0.049331
upperback 5.09967 1.32496 -2.73234
thorax 0.313245 0.612942 -2.90841
lowerneck -11.5505 3.70245 7.90263
upperneck 6.79621 4.30454 -6.05215
head 4.21351 2.0001 -2.8374
rclavicle 2.38542e-015 2.70347e-014
rhumerus -49.8119 37.4938 -98.8356
rradius 115.511
rwrist -19.0176
rhand -15.579 11.6975
rfingers 7.12502
rthumb 10.6062 -18.0148
lclavicle 2.38542e-015 2.70347e-014
lhumerus -36.5298 0.76407 79.2682
lradius 32.5844
lwrist 10.0461
lhand -26.1397 1.7703
lfingers 7.12502
lthumb 0.410798 31.7496
rfemur -13.3194 13.5722 22.5001
rtibia 39.5061
rfoot -35.7988 -26.951
rtoes -21.8024
lfemur -25.0689 -14.5877 -19.8108
ltibia 43.3729
lfoot -28.4439 22.8754
ltoes 9.15061
446
root 12.7878 15.0345 0.391137 -449.353 -92.9024 453.544
lowerback 9.29554 1.40359 0.411589
upperback 4.85576 1.67103 -2.65376
thorax -0.079777 0.793149 -3.12744
lowerneck -11.6451 3.58852 7.96368
upperneck 6.80517 4.12677 -5.9695
head 4.21846 1.91743 -2.83411
rclavicle 2.78299e-015 2.70347e-014
rhumerus -49.8982 37.1777 -99.1508
rradius 115.345
rwrist -19.1074
rhand -15.4696 11.5459
rfingers 7.12502
rthumb 10.7118 -18.1611
lclavicle 2.78299e-015 2.70347e-014
lhumerus -36.8178 0.257821 79.3434
lradius 32.8375
lwrist 11.1462
lhand -26.9537 0.914913
lfingers 7.12502
lthumb -0.375335 30.8943
rfemur -13.9008 12.9869 23.3009
rtibia 39.8186
rfoot -35.437 -26.9518
rtoes -23.9848
lfemur -25.5938 -14.7461 -18.8781
ltibia 43.2997
lfoot -28.8255 23.1822
ltoes 10.585
447
root 12.7723 15.0676 0.437409 -444.312 -93.3247 448.943
lowerback 9.5631 1.54662 0.579793
upperback 4.70026 1.87042 -2.71017
thorax -0.367962 0.893489 -3.30972
lowerneck -11.8454 3.48686 7.86169
upperneck 6.79799 3.97014 -5.76082
head 4.2312 1.84608 -2.76248
rclavicle -1.55052e-014 -1.43125e-014
rhumerus -49.9778 37.1197 -99.6047
rradius 115.027
rwrist -19.1105
rhand -15.7465 11.4643
rfingers 7.12502
rthumb 10.4447 -18.2562
lclavicle -1.55052e-014 -1.43125e-014
lhumerus -37.1046 0.230269 79.2319
lradius 32.9771
lwrist 11.8211
lhand -27.5759 0.462135
lfingers 7.12502
lthumb -0.976305 30.4396
rfemur -13.8202 11.8584 23.7655
rtibia 40.2626
rfoot -36.7988 -24.6037
rtoes -19.3341
lfemur -25.9201 -14.9157 -18.4576
ltibia 43.1845
lfoot -29.1234 23.4143
ltoes 11.3762
448
root 12.7461 15.0845 0.485571 -443.613 -93.454 448.522
lowerback 9.73625 1.62939 0.518263
upperback 4.66938 1.96631 -2.85273
thorax -0.485399 0.939003 -3.43877
lowerneck -12.0599 3.40711 7.68176
upperneck 6.76216 3.8391 -5.40354
head 4.23498 1.79349 -2.63
rclavicle -1.59028e-014 0
rhumerus -50.0321 37.2013 -100.104
rradius 114.67
rwrist -19.0193
rhand -16.1426 11.4452
rfingers 7.12502
rthumb 10.0626 -18.2942
lclavicle -1.59028e-014 0
lhumerus -37.4549 0.467152 79.0221
lradius 33.1917
lwrist 12.4038
lhand -28.2897 1.05964
lfingers 7.12502
lthumb -1.66568 31.0329
rfemur -13.4621 9.83159 24.1656
rtibia 40.8054
rfoot -35.3054 -25.8434
rtoes -22.6118
lfemur -26.0393 -15.1514 -18.4633
ltibia 43.095
lfoot -29.265 23.679
ltoes 11.5507
449
root 12.7198 15.0986 0.530244 -444.432 -93.8455 449.712
lowerback 9.71998 1.72472 0.732379
upperback 4.60117 2.11053 -2.94668
thorax -0.525603 1.01525 -3.67226
lowerneck -12.3222 3.25741 7.76727
upperneck 6.98855 3.59624 -5.26265
head 4.32988 1.68203 -2.61567
rclavicle -1.07344e-014 6.52014e-014
rhumerus -50.0943 37.1007 -100.585
rradius 114.416
rwrist -19.2174
rhand -16.1545 11.4781
rfingers 7.12502
rthumb 10.0511 -18.2618
lclavicle -1.07344e-014 6.52014e-014
lhumerus -37.977 0.63264 78.7565
lradius 33.6397
lwrist 13.0717
lhand -28.8932 2.99624
lfingers 7.12502
lthumb -2.24861 32.9641
rfemur -12.9162 7.85764 24.9873
rtibia 41.508
rfoot -34.1033 -26.9781
rtoes -24.0915
lfemur -26.2915 -15.3926 -18.1253
ltibia 42.9746
lfoot -29.4358 23.7496
ltoes 12.5116
450
root 12.6953 15.1148 0.573577 -447.069 -94.3649 452.656
lowerback 9.75539 1.80043 1.16978
upperback 4.53985 2.24872 -3.02885
thorax -0.576647 1.09159 -4.02127
lowerneck -12.5528 3.06078 7.74991
upperneck 7.16281 3.28723 -4.92854
head 4.39436 1.54726 -2.53052
rclavicle 1.90833e-014 -2.70347e-014
rhumerus -50.1012 36.8066 -100.958
rradius 114.141
rwrist -19.3182
rhand -16.1235 11.3971
rfingers 7.12502
rthumb 10.081 -18.3414
lclavicle 1.90833e-014 -2.70347e-014
lhumerus -38.4911 0.7286 78.5145
lradius 34.0349
lwrist 13.8237
lhand -28.8972 4.37586
lfingers 7.12502
lthumb -2.25239 34.3437
rfemur -12.0478 5.87225 25.9612
rtibia 42.3494
rfoot -33.8912 -26.7329
rtoes -21.6852
lfemur -26.5091 -15.6125 -17.6529
ltibia 42.8565
lfoot -29.6504 23.6032
ltoes 13.7913
451
root 12.6729 15.1305 0.613836 -450.73 -94.6721 456.571
lowerback 9.86833 1.86458 1.33091
upperback 4.47761 2.34567 -3.11697
thorax -0.684099 1.14138 -4.21984
lowerneck -12.668 2.8562 7.68776
upperneck 7.2206 2.98246 -4.61328
head 4.40531 1.4133 -2.44509
rclavicle -1.19271e-014 2.70347e-014
rhumerus -50.149 36.5805 -101.182
rradius 113.882
rwrist -19.2278
rhand -16.2018 11.3127
rfingers 7.12502
rthumb 10.0055 -18.4294
lclavicle -1.19271e-014 2.70347e-014
lhumerus -38.9948 0.883463 78.3866
lradius 34.1589
lwrist 14.5258
lhand -28.7284 4.45163
lfingers 7.12502
lthumb -2.08945 34.4211
rfemur -11.0617 3.73518 26.7025
rtibia 43.3968
rfoot -33.4805 -26.1993
rtoes -18.937
lfemur -26.672 -15.7665 -17.4372
ltibia 42.6835
lfoot -29.4842 23.613
ltoes 13.5501
452
root 12.6458 15.1488 0.654226 -453.787 -94.6468 460.12
lowerback 9.64671 1.9886 0.838655
upperback 4.35725 2.47364 -3.07193
thorax -0.702599 1.19936 -3.90021
lowerneck -12.6901 2.60702 7.44051
upperneck 7.26657 2.67035 -4.42457
head 4.39756 1.26413 -2.37076
rclavicle 1.47101e-014 6.36111e-015
rhumerus -50.4226 36.671 -101.148
rradius 113.785
rwrist -19.2185
rhand -16.0904 11.1492
rfingers 7.12502
rthumb 10.113 -18.5878
lclavicle 1.47101e-014 6.36111e-015
lhumerus -39.6493 1.4764 78.469
lradius 34.193
lwrist 14.6208
lhand -28.6678 4.48606
lfingers 7.12502
lthumb -2.03084 34.4561
rfemur -10.3953 1.52747 27.0023
rtibia 44.7332
rfoot -32.2026 -25.7044
rtoes -18.1748
lfemur -26.9891 -15.8172 -17.5586
ltibia 42.3438
lfoot -29.0238 23.7154
ltoes 12.5739
453
root 12.6193 15.1621 0.695815 -457.569 -94.506 464.288
lowerback 9.54522 2.19432 -0.18115
upperback 4.23107 2.67022 -2.75628
thorax -0.829605 1.28239 -3.01458
lowerneck -12.756 2.33743 6.90653
upperneck 7.39772 2.38423 -4.28044
head 4.42313 1.11698 -2.26178
rclavicle 9.54166e-015 3.33958e-014
rhumerus -51.0976 36.9531 -100.908
rradius 113.845
rwrist -19.2225
rhand -16.1234 10.7747
rfingers 7.12502
rthumb 10.0811 -18.9638
lclavicle 9.54166e-015 3.33958e-014
lhumerus -40.4181 2.40314 78.8632
lradius 34.138
lwrist 14.2225
lhand -28.5613 4.60288
lfingers 7.12502
lthumb -1.92801 34.5739
rfemur -9.64588 -0.749055 27.0872
rtibia 46.1649
rfoot -30.091 -25.3958
rtoes -20.1395
lfemur -27.1843 -15.7193 -17.8847
ltibia 42.058
lfoot -28.5396 23.4457
ltoes 11.9471
